<?xml version="1.0" encoding="utf-8"?>
<!-- Generator: Adobe Illustrator 21.0.2, SVG Export Plug-In . SVG Version: 6.00 Build 0)  -->
<svg version="1.1" id="Layer_1" xmlns="http://www.w3.org/2000/svg" xmlns:xlink="http://www.w3.org/1999/xlink" x="0px" y="0px"
	 viewBox="0 0 170 50" style="enable-background:new 0 0 170 50;" xml:space="preserve">
<g>
	<path d="M1.6,35.8h13.4V49H1.6V35.8z"/>
	<path d="M22.2,1.4h13.2v19.3L51.9,1.4h15.6l-18,20.4L68.1,49H52.3l-12-17.7l-4.8,5.3V49H22.2V1.4z"/>
	<path d="M66.6,25.4v-0.1c0-13.7,11-24.8,25.7-24.8c14.7,0,25.6,11,25.6,24.6v0.1c0,13.7-11,24.8-25.7,24.8
		C77.4,50,66.6,39,66.6,25.4z M104.3,25.4v-0.1c0-6.9-4.9-12.9-12.2-12.9c-7.3,0-12.1,5.9-12.1,12.7v0.1c0,6.9,5,12.9,12.2,12.9
		C99.5,38.1,104.3,32.2,104.3,25.4z"/>
	<path d="M124.7,1.4h18.4c16.9,0,26.8,9.8,26.8,23.5v0.1c0,13.7-10,24-27.1,24h-18.2V1.4z M137.9,13v24.3h5.4c8,0,13.2-4.4,13.2-12
		v-0.1c0-7.6-5.2-12.1-13.2-12.1H137.9z"/>
</g>
</svg>
